<svg width="92" height="30" viewBox="0 0 92 30" fill="none" xmlns="http://www.w3.org/2000/svg">
<path d="M14.68 14.8399V24.1999L14.76 26.0399C14.84 26.8932 15.0533 27.5066 15.4 27.8799C15.7466 28.2532 16.3333 28.4932 17.16 28.5999L19.2 28.7599V29.3999H-2.19643e-05V28.7599H1.23998C1.82664 28.6799 2.38664 28.6132 2.91998 28.5599C3.45331 28.4799 3.86664 28.2799 4.15998 27.9599C4.47998 27.6132 4.67998 27.0132 4.75998 26.1599L4.83998 24.3199V5.3599L4.75998 3.5199C4.67998 2.66657 4.47998 2.06657 4.15998 1.7199C3.83998 1.37323 3.38664 1.1599 2.79998 1.0799C2.21331 0.999902 1.70664 0.959901 1.27998 0.959901C0.853311 0.933235 0.453311 0.906568 0.079978 0.8799V0.239901L17.96 0.199902C20.44 0.199902 22.4533 0.306568 24 0.5199C25.5466 0.733234 26.8 1.1599 27.76 1.7999C28.7466 2.4399 29.52 3.2399 30.08 4.1999C30.6666 5.13323 30.96 6.22657 30.96 7.4799C30.96 8.41323 30.7866 9.34657 30.44 10.2799C30.12 11.2132 29.6133 12.0132 28.92 12.6799C28.2266 13.3466 27.36 13.8666 26.32 14.2399C25.3066 14.6132 23.68 14.7999 21.44 14.7999V15.0799C22.8 15.3732 23.9333 15.6532 24.84 15.9199C25.7733 16.1866 26.6133 16.5732 27.36 17.0799C28.1066 17.5866 28.7733 18.3466 29.36 19.3599C29.9733 20.3466 30.4666 21.4399 30.84 22.6399C31.2133 23.8132 31.5466 24.6532 31.84 25.1599C32.1333 25.6399 32.5466 25.8799 33.08 25.8799C33.7733 25.8799 34.2266 25.4399 34.44 24.5599C34.68 23.6532 34.8 22.6266 34.8 21.4799H35.44C35.44 22.7866 35.36 23.8266 35.2 24.5999C35.04 25.3732 34.64 26.1866 34 27.0399C33.36 27.8666 32.44 28.5466 31.24 29.0799C30.0666 29.5866 28.7866 29.8399 27.4 29.8399C25.24 29.8399 23.5066 29.2266 22.2 27.9999C20.92 26.7466 20.12 25.1199 19.8 23.1199C19.5066 21.0932 19.2666 19.3866 19.08 17.9999C18.7866 16.4532 18.4 15.5599 17.92 15.3199C17.44 15.0532 16.92 14.9066 16.36 14.8799C15.8 14.8532 15.24 14.8399 14.68 14.8399ZM17.88 13.9999C18.8933 13.8399 19.6533 13.1066 20.16 11.7999C20.6933 10.4932 20.96 9.0399 20.96 7.4399C20.96 6.13323 20.6933 4.85323 20.16 3.5999C19.6266 2.3199 18.9866 1.57323 18.24 1.3599C17.4933 1.14657 16.8266 1.02657 16.24 0.999901C15.6533 0.973234 15.1333 0.946568 14.68 0.919902V14.1199H16.04C16.7866 14.1199 17.4 14.0799 17.88 13.9999ZM48.8044 29.3999H35.8444V28.7599L36.8044 28.7199C37.5777 28.6399 38.0444 28.4532 38.2044 28.1599C38.3644 27.8666 38.4444 27.2266 38.4444 26.2399L38.4844 24.3999V14.8399L38.4444 13.1999C38.391 12.5599 38.311 12.0799 38.2044 11.7599C38.0977 11.4399 37.6177 11.2399 36.7644 11.1599L35.6844 11.0799V10.4399H46.1644V24.3999L46.2044 26.2399C46.2044 27.1999 46.2844 27.8399 46.4444 28.1599C46.6044 28.4532 47.071 28.6399 47.8444 28.7199L48.8044 28.7599V29.3999ZM38.4044 3.7599C38.4044 2.7199 38.7777 1.8399 39.5244 1.1199C40.2977 0.373235 41.2177 -9.82285e-05 42.2844 -9.82285e-05C43.3777 -9.82285e-05 44.2977 0.359902 45.0444 1.0799C45.8177 1.77323 46.2044 2.66657 46.2044 3.7599C46.2044 4.82657 45.8177 5.73324 45.0444 6.4799C44.2977 7.1999 43.3777 7.5599 42.2844 7.5599C41.2177 7.5599 40.2977 7.1999 39.5244 6.4799C38.7777 5.73324 38.4044 4.82657 38.4044 3.7599ZM61.5981 11.0799C61.4381 11.0799 61.2781 11.0932 61.1181 11.1199C60.9581 11.1199 60.6648 11.1599 60.2381 11.2399C59.8381 11.2932 59.6381 11.5999 59.6381 12.1599C59.6381 12.4532 59.6648 12.7066 59.7181 12.9199C59.7714 13.1332 59.8648 13.3999 59.9981 13.7199L63.0381 21.7999L65.8781 14.4399C66.1981 13.5066 66.3581 12.7732 66.3581 12.2399C66.3581 11.8666 66.2648 11.6132 66.0781 11.4799C65.8914 11.3466 65.5981 11.2399 65.1981 11.1599L63.9181 11.0799V10.4399H70.5981V11.0799L69.1181 11.2399C68.6914 11.3199 68.3048 11.5732 67.9581 11.9999C67.6114 12.3999 67.2514 13.0799 66.8781 14.0399C66.5048 14.9732 65.7714 16.8399 64.6781 19.6399C63.6114 22.4399 62.7981 24.5732 62.2381 26.0399C61.6781 27.5066 61.2381 28.6799 60.9181 29.5599H58.0781C57.6248 28.4132 57.0648 26.9732 56.3981 25.2399C55.7314 23.4799 54.8914 21.3066 53.8781 18.7199C52.8648 16.1066 52.1714 14.3466 51.7981 13.4399C51.4248 12.5332 51.1448 11.9599 50.9581 11.7199C50.7981 11.4532 50.5448 11.2932 50.1981 11.2399C49.8514 11.1599 49.5314 11.1199 49.2381 11.1199C48.9448 11.0932 48.7314 11.0799 48.5981 11.0799V10.4399H61.5981V11.0799ZM91.5134 19.9199C91.5134 22.7466 90.4334 25.1066 88.2734 26.9999C86.1401 28.8666 83.6201 29.7999 80.7134 29.7999C77.6467 29.7999 75.0734 28.8666 72.9934 26.9999C70.9401 25.1066 69.9134 22.7466 69.9134 19.9199C69.9134 17.0932 70.9534 14.7466 73.0334 12.8799C75.1401 10.9866 77.7001 10.0399 80.7134 10.0399C83.6734 10.0399 86.2067 10.9732 88.3134 12.8399C90.4467 14.7066 91.5134 17.0666 91.5134 19.9199ZM83.5534 19.8799C83.5534 19.5066 83.5267 18.7599 83.4734 17.6399C83.4201 16.5199 83.3934 15.8532 83.3934 15.6399C83.3934 14.1999 83.1667 13.0132 82.7134 12.0799C82.2867 11.1466 81.6067 10.6799 80.6734 10.6799C79.8201 10.6799 79.1667 11.1732 78.7134 12.1599C78.2601 13.1199 78.0334 14.2799 78.0334 15.6399C78.0334 16.1466 78.0067 16.7732 77.9534 17.5199C77.9267 18.2399 77.9001 19.0266 77.8734 19.8799C77.8734 20.2532 77.9001 21.0266 77.9534 22.1999C78.0067 23.3466 78.0334 24.0132 78.0334 24.1999C78.0334 25.6399 78.2467 26.8266 78.6734 27.7599C79.1267 28.6932 79.8067 29.1599 80.7134 29.1599C81.5934 29.1599 82.2601 28.6799 82.7134 27.7199C83.1667 26.7599 83.3934 25.5866 83.3934 24.1999C83.3934 23.6666 83.4067 23.0399 83.4334 22.3199C83.4601 21.5732 83.5001 20.7599 83.5534 19.8799Z" fill="#224F34"/>
</svg>
